<?xml version="1.0" encoding="UTF-8"?>
<svg version="1.1" xmlns="http://www.w3.org/2000/svg" width="574" height="574">
<path d="M0 0 C1.47988655 -0.01058945 1.47988655 -0.01058945 2.9896698 -0.02139282 C44.03582786 -0.24849813 44.03582786 -0.24849813 61.3671875 3.203125 C62.44081543 3.41243652 63.51444336 3.62174805 64.62060547 3.83740234 C130.47213853 16.96312053 194.97594752 51.03143197 236.3671875 105.203125 C237.37921978 106.48775857 238.39232573 107.7715467 239.40625 109.0546875 C275.67627253 155.28835231 300.28702156 214.47481664 300.5703125 273.8359375 C300.57737213 274.82252853 300.58443176 275.80911957 300.59170532 276.8256073 C300.81881063 317.87176536 300.81881063 317.87176536 297.3671875 335.203125 C297.15787598 336.27675293 296.94856445 337.35038086 296.73291016 338.45654297 C283.60719197 404.30807603 249.53888053 468.81188502 195.3671875 510.203125 C194.08255393 511.21515728 192.7987658 512.22826323 191.515625 513.2421875 C145.28196019 549.51221003 86.09549586 574.12295906 26.734375 574.40625 C25.74778397 574.41330963 24.76119293 574.42036926 23.7447052 574.42764282 C-17.30145286 574.65474813 -17.30145286 574.65474813 -34.6328125 571.203125 C-35.70644043 570.99381348 -36.78006836 570.78450195 -37.88623047 570.56884766 C-103.73776353 557.44312947 -168.24157252 523.37481803 -209.6328125 469.203125 C-210.64484478 467.91849143 -211.65795073 466.6347033 -212.671875 465.3515625 C-248.94189753 419.11789769 -273.55264656 359.93143336 -273.8359375 300.5703125 C-273.84299713 299.58372147 -273.85005676 298.59713043 -273.85733032 297.5806427 C-274.08443563 256.53448464 -274.08443563 256.53448464 -270.6328125 239.203125 C-270.42350098 238.12949707 -270.21418945 237.05586914 -269.99853516 235.94970703 C-256.87281697 170.09817397 -222.80450553 105.59436498 -168.6328125 64.203125 C-167.34817893 63.19109272 -166.0643908 62.17798677 -164.78125 61.1640625 C-118.54758519 24.89403997 -59.36112086 0.28329094 0 0 Z " fill="#010101" transform="translate(273.6328125,-0.203125)"/>
<path d="M0 0 C0.99418945 0.19255371 1.98837891 0.38510742 3.01269531 0.58349609 C13.54888575 2.66122591 23.51776792 5.2038902 33.390625 9.44921875 C37.42515046 11.18266746 41.50714566 12.7284702 45.625 14.25 C49.76940637 15.78692176 53.90421539 17.3365779 58 19 C58 19.66 58 20.32 58 21 C58.71027344 21.26554687 59.42054688 21.53109375 60.15234375 21.8046875 C77.54511887 29.10535854 93.42965283 41.91048062 106.44140625 55.44140625 C108.15302691 57.15302691 109.96069085 58.69154676 111.8125 60.25 C120.49573054 67.77434677 127.42507647 76.63909192 134 86 C134.84524221 87.15281553 135.69302086 88.30377448 136.54296875 89.453125 C141.39484291 96.04837533 145.66089326 102.48700984 149 110 C149.37125 110.78890625 149.7425 111.5778125 150.125 112.390625 C151.45549829 115.24419369 152.72887218 118.11946034 154 121 C154.30873047 121.68239746 154.61746094 122.36479492 154.93554688 123.06787109 C159.65343008 133.52916586 163.17418031 143.58808864 165.50830078 154.8125 C166.02866712 157.12753597 166.63799099 159.40255376 167.27734375 161.6875 C167.50075439 162.48994141 167.72416504 163.29238281 167.9543457 164.11914062 C168.37724835 165.6204681 168.80827714 167.11955254 169.25073242 168.61523438 C173.09328551 182.46778657 173.37515424 196.97206328 173.3125 211.25 C173.31167419 212.05172638 173.31084839 212.85345276 173.30999756 213.67947388 C173.27520663 228.4013488 172.74215044 242.93498359 168 257 C167.73814358 259.10558736 167.73814358 259.10558736 167.6875 261.125 C167.21526901 266.2250947 165.31460971 270.43701639 163.26171875 275.08984375 C161.89398803 278.24451677 160.80412553 281.41626847 159.7578125 284.6875 C158.29014752 289.16614777 156.62837314 293.57776839 155 298 C154.34 298 153.68 298 153 298 C152.96132813 298.72574219 152.92265625 299.45148438 152.8828125 300.19921875 C151.28517186 305.26783971 146.43809397 307.58764547 142.046875 310.15625 C135.17809137 313.64727097 127.8933711 313.27351141 120.5234375 311.35546875 C113.94942858 308.57610977 109.7215662 302.77671968 106.0625 296.875 C102.80047099 288.02092125 104.62496045 277.51787973 108 269 C108.8085238 267.33856681 109.62265996 265.67985698 110.44140625 264.0234375 C113.30080448 257.77500666 114.58526031 251.55470124 115.75 244.8125 C115.95753906 243.68908203 116.16507812 242.56566406 116.37890625 241.40820312 C118.35635888 230.54497142 119.2387928 220.23236014 119.25 209.1875 C119.25100708 208.49947296 119.25201416 207.81144592 119.25305176 207.10256958 C119.23782576 191.69184898 117.40055665 177.39577544 112.76953125 162.6875 C112 160 112 160 112 157 C111.34 157 110.68 157 110 157 C109.85304688 156.32195312 109.70609375 155.64390625 109.5546875 154.9453125 C108.03678116 148.64687357 105.90439053 143.71654445 102.41015625 138.2734375 C100.58088299 135.32430443 99.35827068 132.18898334 98 129 C89.72918219 114.06123604 78.06687147 101.41314304 65.5625 89.9375 C64.65628906 89.10089844 63.75007813 88.26429688 62.81640625 87.40234375 C59.99991799 84.99993005 57.1151619 82.9945399 54 81 C52.625 80.08333333 51.25 79.16666667 49.875 78.25 C49.10800781 77.74210937 48.34101563 77.23421875 47.55078125 76.7109375 C45.72294605 75.48491634 43.90934415 74.23757121 42.10546875 72.9765625 C35.91841417 68.70360311 30.06657579 65.52111579 23 63 C21.88625 62.505 20.7725 62.01 19.625 61.5 C-18.66447785 45.65607813 -63.52793537 46.3443057 -102.04931641 61.18261719 C-120.78148425 69.03184096 -137.24005706 81.22108046 -152 95 C-152.85335937 95.77601563 -153.70671875 96.55203125 -154.5859375 97.3515625 C-160.5412386 102.99250753 -165.54287956 109.05590415 -170.4375 115.625 C-171.02885742 116.41245605 -171.62021484 117.19991211 -172.22949219 118.01123047 C-175.48212227 122.47823791 -178.06224048 126.85386508 -180.16040039 131.97021484 C-181.01498696 134.03623193 -181.9802349 136.01104098 -183 138 C-188.33799472 148.55038957 -192.14921954 159.158349 -195.03515625 170.609375 C-195.82033931 173.36864177 -196.73529701 175.47059401 -198 178 C-202.66533519 196.71893751 -200.69529727 218.09522264 -198 237 C-197.86722656 237.93199219 -197.73445313 238.86398437 -197.59765625 239.82421875 C-195.75641254 250.43328965 -191.95695151 261.02160053 -188 271 C-187.7309082 271.72340576 -187.46181641 272.44681152 -187.18457031 273.19213867 C-184.78517187 279.49342815 -181.81719268 285.18527531 -178.3125 290.9375 C-177.78358154 291.81140381 -177.25466309 292.68530762 -176.7097168 293.58569336 C-172.61613176 300.23599098 -168.15582798 306.13043262 -163 312 C-161.49584202 313.87166604 -159.99590048 315.74672772 -158.5 317.625 C-145.54894514 333.29909716 -128.73167121 345.98934961 -110 354 C-107.79166667 355.10416667 -105.58333333 356.20833333 -103.375 357.3125 C-67.13265593 374.59227428 -24.40707658 373.87784603 13 361 C13.68835938 360.64164062 14.37671875 360.28328125 15.0859375 359.9140625 C21.75102638 356.7311425 30.85896718 357.09813043 38 358 C45.51874989 361.36109491 50.80003789 367.13110111 54.8125 374.1875 C57.03672378 381.32842897 57.03594575 387.55187035 53.8125 394.375 C51.66195487 398.19886255 49.35881173 401.1327217 46 404 C44.73929687 405.20462891 44.73929687 405.20462891 43.453125 406.43359375 C39.50902937 409.71701252 35.05786724 410.87848099 30.1875 412.25 C28.47196367 412.75285151 26.75708032 413.25793802 25.04296875 413.765625 C24.29039795 413.97993164 23.53782715 414.19423828 22.76245117 414.41503906 C20.99514575 414.85539893 20.99514575 414.85539893 20 416 C18.41635296 416.34412465 16.82106675 416.63505439 15.22265625 416.90234375 C14.23330078 417.07056641 13.24394531 417.23878906 12.22460938 417.41210938 C11.18111328 417.58548828 10.13761719 417.75886719 9.0625 417.9375 C2.50107025 419.04015561 -4.04154283 420.16626309 -10.55297852 421.53735352 C-16.4345043 422.64934507 -22.1724772 423.16668947 -28.15234375 423.203125 C-28.921763 423.21000336 -29.69118225 423.21688171 -30.48391724 423.22396851 C-32.96849318 423.24110997 -35.45286798 423.24742875 -37.9375 423.25 C-38.7827121 423.25167175 -39.62792419 423.25334351 -40.49874878 423.25506592 C-74.63057165 423.25911069 -74.63057165 423.25911069 -87 418 C-89.22190695 417.54621079 -91.45240253 417.13358108 -93.6875 416.75 C-102.75554012 415.08903942 -111.3274437 412.06966769 -120 409 C-120 408.34 -120 407.68 -120 407 C-120.88751953 406.83564453 -120.88751953 406.83564453 -121.79296875 406.66796875 C-126.47808373 405.72788858 -129.96956844 404.65159971 -134 402 C-135.051875 401.566875 -136.10375 401.13375 -137.1875 400.6875 C-142.09013211 398.65993442 -146.49751756 395.77966761 -151 393 C-152.32644531 392.2575 -152.32644531 392.2575 -153.6796875 391.5 C-156 390 -156 390 -158 387 C-159.32594105 386.63837971 -160.65938457 386.30271961 -162 386 C-162.33 385.34 -162.66 384.68 -163 384 C-164.08087891 383.59394531 -164.08087891 383.59394531 -165.18359375 383.1796875 C-168.6723663 381.71837084 -171.24389007 379.58392845 -174.0625 377.125 C-174.6517627 376.61469238 -175.24102539 376.10438477 -175.84814453 375.57861328 C-181.55271878 370.54653541 -186.97869177 365.23386507 -192.375 359.875 C-193.20652588 359.05273926 -194.03805176 358.23047852 -194.89477539 357.38330078 C-200.35894535 351.89126076 -205.29105857 346.14930778 -210 340 C-210.66346436 339.14003418 -210.66346436 339.14003418 -211.34033203 338.26269531 C-212.36723633 336.91586222 -213.37227674 335.55243146 -214.375 334.1875 C-215.34566406 332.87845703 -215.34566406 332.87845703 -216.3359375 331.54296875 C-218 329 -218 329 -219.0390625 326.23828125 C-219.35617188 325.49964844 -219.67328125 324.76101563 -220 324 C-220.99 323.67 -221.98 323.34 -223 323 C-227 316.94285714 -227 316.94285714 -227 312 C-227.66 312 -228.32 312 -229 312 C-229.24234375 311.3709375 -229.4846875 310.741875 -229.734375 310.09375 C-230.06953125 309.2378125 -230.4046875 308.381875 -230.75 307.5 C-231.07484375 306.6646875 -231.3996875 305.829375 -231.734375 304.96875 C-232.71927795 302.65848382 -233.76794102 300.48577055 -234.921875 298.26171875 C-237.20573727 293.74827052 -238.87172948 289.0949394 -240.5 284.3125 C-240.80188232 283.43762939 -241.10376465 282.56275879 -241.41479492 281.66137695 C-243.76039452 274.81726365 -245.95730781 267.9409847 -248 261 C-248.350625 259.865625 -248.70125 258.73125 -249.0625 257.5625 C-249.371875 256.386875 -249.68125 255.21125 -250 254 C-250.24242432 253.16170654 -250.48484863 252.32341309 -250.73461914 251.4597168 C-253.78987886 239.49304994 -253.46340889 227.52254936 -253.375 215.25 C-253.37034729 214.11337921 -253.36569458 212.97675842 -253.36090088 211.80569458 C-253.25292637 189.38635047 -252.82017165 168.05926353 -244.67285156 146.91113281 C-243.53179926 143.6701468 -242.80863591 140.33777374 -242 137 C-239.47868676 129.31124278 -235.6638175 122.13394979 -231.99609375 114.9453125 C-230.79992593 112.60017184 -229.65075012 110.25307092 -228.53515625 107.8671875 C-222.92102235 95.92291421 -215.1702776 84.51455423 -206 75 C-206.99 75.33 -207.98 75.66 -209 76 C-207.3343224 71.6671298 -204.12539069 68.86506948 -200.875 65.6875 C-200.28968506 65.10790527 -199.70437012 64.52831055 -199.10131836 63.93115234 C-195.42495496 60.31617158 -191.64654915 56.87699939 -187.69921875 53.55859375 C-185.37282602 51.42473007 -183.48691373 49.01795434 -181.6171875 46.48046875 C-180 45 -180 45 -177.14453125 44.0625 C-173.580423 42.85822988 -171.62662467 41.28603469 -168.8125 38.8125 C-163.48842302 34.31084142 -157.95639316 30.60314376 -152 27 C-151.11957031 26.44054687 -150.23914063 25.88109375 -149.33203125 25.3046875 C-142.28905902 20.89350671 -142.28905902 20.89350671 -138.0625 19.8125 C-134.77808398 18.94112432 -134.28093066 18.28595 -132 16 C-130.14990234 15.06445312 -130.14990234 15.06445312 -128.0859375 14.28125 C-127.32410156 13.98863281 -126.56226563 13.69601563 -125.77734375 13.39453125 C-124.98457031 13.09933594 -124.19179687 12.80414063 -123.375 12.5 C-122.60542969 12.20480469 -121.83585938 11.90960938 -121.04296875 11.60546875 C-115.74181024 9.58978536 -110.39020661 7.76141252 -105 6 C-103.99195313 5.66097656 -102.98390625 5.32195312 -101.9453125 4.97265625 C-92.44304766 1.90613588 -82.80503374 -0.17903512 -73 -2 C-71.78441406 -2.22945313 -70.56882813 -2.45890625 -69.31640625 -2.6953125 C-46.3668775 -6.26468061 -22.64524077 -4.50933124 0 0 Z " fill="#FCFCFC" transform="translate(321,79)"/>
<path d="M0 0 C4.97433934 4.07097607 9.4348159 8.72914711 13.9609375 13.28222656 C15.3261229 14.63734565 16.69234811 15.99141788 18.05952454 17.3445282 C21.74645924 21.00029394 25.41743837 24.671686 29.08468246 28.34719181 C32.15428657 31.42097168 35.23145231 34.48712631 38.30854321 37.55340838 C45.56791509 44.78769601 52.81414795 52.03495949 60.05224609 59.29052734 C67.50905467 66.7648775 74.98759813 74.21695963 82.47716141 81.65847611 C88.9206535 88.06216941 95.35046641 94.47937365 101.76952744 100.9075563 C105.59760307 104.74080752 109.4305828 108.56879644 113.27679443 112.38385773 C116.89103113 115.97000934 120.48783397 119.57278739 124.0721035 123.18888283 C125.38704476 124.50986461 126.70793407 125.82495724 128.03524208 127.1335125 C136.49071317 135.47839151 141.57933513 141.83272702 142.4375 154 C142.14251273 161.5162756 139.7793334 167.75647107 134.25 172.9375 C126.19816829 179.19020448 118.11588577 180.16326984 108 179 C102.76920681 177.10718884 99.40553802 174.94730672 95.32344055 171.06535339 C94.81205042 170.58255549 94.30066029 170.09975758 93.77377349 169.60232943 C92.17048747 168.08018319 90.58309017 166.54312218 89 165 C88.50687246 164.52087418 88.01374492 164.04174836 87.50567412 163.54810357 C83.9144858 160.04763223 80.36746371 156.50395839 76.82495117 152.9543457 C75.66234503 151.79309903 74.49952724 150.63206422 73.33651733 149.47122192 C70.21676915 146.35598115 67.10013014 143.23764798 63.98423171 140.11855721 C60.7045638 136.83633316 57.42242905 133.55657724 54.14070129 130.27641296 C48.63765814 124.77518106 43.13670869 119.27186221 37.63696289 113.76733398 C31.29490329 107.41982293 24.94923493 101.07593668 18.60170192 94.73389941 C13.12778581 89.26453137 7.65583331 83.79320453 2.18549711 78.32025594 C-1.07142379 75.06178297 -4.32900009 71.80397293 -7.58835793 68.54793739 C-10.64984168 65.4893574 -13.70884001 62.42831257 -16.76599503 59.36540604 C-17.88292475 58.24716257 -19.00069047 57.12975333 -20.11938667 56.01327705 C-43.0884148 33.08560613 -43.0884148 33.08560613 -43.25 19.6875 C-43.21819532 11.36958221 -42.02327124 6.97687238 -36.3125 0.75 C-25.35905053 -9.48909407 -11.88289333 -7.94269025 0 0 Z " fill="#FBFBFB" transform="translate(329,303)"/>
<path d="M0 0 C5.75878901 -0.23505261 10.46633697 0.15544566 16 2 C19.02672595 2.89313025 21.70688316 3.12182399 24.86035156 3.11352539 C25.82104553 3.11344986 26.7817395 3.11337433 27.77154541 3.11329651 C28.80084167 3.10813522 29.83013794 3.10297394 30.890625 3.09765625 C31.95037537 3.0962413 33.01012573 3.09482635 34.10198975 3.09336853 C37.48468862 3.08777382 40.86732115 3.07522225 44.25 3.0625 C46.54426988 3.05748432 48.83854079 3.05292153 51.1328125 3.04882812 C56.75523094 3.03780611 62.37761073 3.02107321 68 3 C68 3.33 68 3.66 68 4 C59.44631054 5.69655943 51.21321326 6.3525803 42.5 6.3125 C41.28473633 6.30976074 40.06947266 6.30702148 38.81738281 6.30419922 C25.52587986 6.15192627 12.84259464 4.34139906 0 1 C0 0.67 0 0.34 0 0 Z " fill="#555555" transform="translate(239,444)"/>
<path d="M0 0 C1.31581055 0.00306152 2.63162109 0.00612305 3.98730469 0.00927734 C10.62724923 0.07474159 17.10616414 0.36004837 23.6875 1.25 C23.6875 1.58 23.6875 1.91 23.6875 2.25 C22.65568604 2.27505615 21.62387207 2.3001123 20.56079102 2.32592773 C16.64486191 2.42180281 12.72903835 2.52154417 8.81323242 2.62231445 C7.13487253 2.66499681 5.45648741 2.70670105 3.77807617 2.74731445 C-11.28640037 3.112979 -26.31388159 3.72746206 -41.3125 5.25 C-30.60452538 -1.88864975 -12.49982007 -0.03086467 0 0 Z " fill="#A2A2A2" transform="translate(280.3125,74.75)"/>
<path d="M0 0 C1.32 0.33 2.64 0.66 4 1 C0.11360562 4.96067125 -3.78263121 8.91129439 -7.68823242 12.85302734 C-9.01486461 14.1947257 -10.33878919 15.53910699 -11.65991211 16.88623047 C-13.56174833 18.82454418 -15.4731829 20.75293148 -17.38671875 22.6796875 C-17.97337814 23.28183075 -18.56003754 23.883974 -19.16447449 24.50436401 C-22.24516124 27.58629686 -24.70403384 29.75448647 -29 31 C-27.3343224 26.6671298 -24.12539069 23.86506948 -20.875 20.6875 C-20.28968506 20.10790527 -19.70437012 19.52831055 -19.10131836 18.93115234 C-15.43042754 15.32155279 -11.65122697 11.89443112 -7.72265625 8.56640625 C-4.84813706 5.95261443 -2.45427755 3.00649 0 0 Z " fill="#C5C5C5" transform="translate(141,124)"/>
<path d="M0 0 C-17.93618801 5.79130836 -34.52346031 7.16383823 -53.25 7.0625 C-54.88150903 7.05747149 -56.51301958 7.05291099 -58.14453125 7.04882812 C-62.0963923 7.03793757 -66.04817892 7.02074866 -70 7 C-70 6.67 -70 6.34 -70 6 C-68.57288696 5.970271 -68.57288696 5.970271 -67.11694336 5.93994141 C-63.51027533 5.86256272 -59.90394348 5.77407816 -56.29760742 5.68261719 C-54.75112655 5.64486303 -53.20457368 5.60992858 -51.65795898 5.578125 C-38.86697547 5.31207919 -26.33970093 4.70376727 -14 1 C-12.27691657 0.57847315 -10.5480213 0.17947032 -8.8125 -0.1875 C-7.99394531 -0.36667969 -7.17539062 -0.54585938 -6.33203125 -0.73046875 C-3.91326525 -1.01002462 -2.29914634 -0.74524054 0 0 Z " fill="#525252" transform="translate(337,496)"/>
<path d="M0 0 C0.33 0 0.66 0 1 0 C1.03738281 0.65484375 1.07476562 1.3096875 1.11328125 1.984375 C1.56459222 8.24963311 2.67684966 13.99074384 4.30078125 20.05078125 C5.31633485 24.33426153 5.71860687 28.61414844 6 33 C4 32 4 32 3.40576172 30.2409668 C3.17010498 29.10655151 3.17010498 29.10655151 2.9296875 27.94921875 C2.7553418 27.11036133 2.58099609 26.27150391 2.40136719 25.40722656 C2.14081543 24.06096191 2.14081543 24.06096191 1.875 22.6875 C1.69614258 21.78354492 1.51728516 20.87958984 1.33300781 19.94824219 C0.06759777 13.20179892 -0.50258496 6.8686611 0 0 Z " fill="#878787" transform="translate(68,307)"/>
<path d="M0 0 C0.66 0.33 1.32 0.66 2 1 C0.26009069 2.98889633 -1.49085675 4.96573765 -3.25 6.9375 C-3.74113281 7.50146484 -4.23226562 8.06542969 -4.73828125 8.64648438 C-7.39017854 11.59893002 -9.09043262 13.29349578 -13 14 C-8.88380164 9.08064098 -4.59589638 4.47352044 0 0 Z " fill="#3B3B3B" transform="translate(176,166)"/>
<path d="M0 0 C5.77423494 -0.23568306 10.44973959 0.18355114 16 2 C17.47632503 2.38603552 18.95558304 2.7610204 20.4375 3.125 C21.613125 3.41375 22.78875 3.7025 24 4 C24 4.33 24 4.66 24 5 C15.6875679 4.57258771 8.0098625 3.25809954 0 1 C0 0.67 0 0.34 0 0 Z " fill="#676767" transform="translate(239,444)"/>
<path d="M0 0 C0.33 1.32 0.66 2.64 1 4 C-5.28571429 9.42857143 -5.28571429 9.42857143 -9 11 C-7.59155282 7.78475695 -5.89655214 5.67816132 -3.375 3.25 C-2.74335937 2.63640625 -2.11171875 2.0228125 -1.4609375 1.390625 C-0.73777344 0.70226562 -0.73777344 0.70226562 0 0 Z " fill="#919191" transform="translate(121,144)"/>
<path d="M0 0 C2.1875 0.3125 2.1875 0.3125 4 1 C1.03 3.475 1.03 3.475 -2 6 C-2.33 5.01 -2.66 4.02 -3 3 C-1.75 1.4375 -1.75 1.4375 0 0 Z " fill="#7D7D7D" transform="translate(141,124)"/>
</svg>
